<?xml version="1.0" standalone="no"?>
<!DOCTYPE svg PUBLIC "-//W3C//DTD SVG 20010904//EN"
 "http://www.w3.org/TR/2001/REC-SVG-20010904/DTD/svg10.dtd">
<svg version="1.0" xmlns="http://www.w3.org/2000/svg"
 width="192.000000pt" height="192.000000pt" viewBox="0 0 192.000000 192.000000"
 preserveAspectRatio="xMidYMid meet">
<metadata>
Created by potrace 1.14, written by Peter Selinger 2001-2017
</metadata>
<g transform="translate(0.000000,192.000000) scale(0.100000,-0.100000)"
fill="#000000" stroke="none">
<path d="M100 1901 c-19 -10 -48 -35 -65 -55 l-30 -38 0 -848 0 -848 30 -38
c65 -79 -2 -74 925 -74 927 0 860 -5 925 74 l30 38 0 848 0 848 -30 38 c-65
79 2 74 -925 74 -785 0 -827 -1 -860 -19z m554 -333 c130 -20 248 -95 287
-183 38 -87 33 -209 -12 -302 -30 -61 -104 -135 -167 -164 -60 -28 -59 -14
-13 -174 72 -251 97 -264 239 -130 57 53 72 74 82 113 34 138 146 242 226 212
29 -11 31 -38 8 -117 -11 -37 -15 -82 -12 -135 3 -75 5 -81 36 -109 28 -25 40
-29 95 -29 116 0 187 65 187 170 0 88 -20 123 -150 252 -149 151 -174 196
-174 319 0 76 3 91 30 140 36 64 106 120 176 143 106 34 233 11 300 -56 83
-83 81 -249 -4 -324 -32 -28 -75 -54 -90 -54 -44 -1 -37 -19 37 -91 53 -51 86
-93 108 -138 29 -60 32 -74 32 -161 0 -82 -4 -103 -26 -150 -52 -107 -140
-181 -280 -230 -50 -18 -86 -23 -164 -23 -150 -1 -231 35 -298 129 l-31 44
-35 -36 c-90 -90 -198 -139 -293 -132 -44 3 -64 10 -84 29 -52 49 -69 103 -94
314 -18 145 -26 170 -64 183 -37 14 -60 36 -70 69 -12 39 32 73 94 73 28 0 60
-4 70 -10 15 -8 25 -2 55 31 50 56 66 99 67 183 1 100 -27 147 -112 192 -28
15 -57 18 -145 18 -124 0 -171 -12 -297 -75 -108 -54 -145 -51 -114 9 41 79
202 180 321 201 113 20 141 20 279 -1z m-245 -261 c15 -38 -7 -187 -51 -356
-38 -147 -41 -167 -47 -342 -7 -214 -6 -211 -98 -255 -111 -52 -153 -16 -153
133 0 179 101 541 201 718 32 57 84 111 114 118 11 3 21 5 23 6 1 0 6 -9 11
-22z"/>
<path d="M1530 1429 c-14 -6 -35 -19 -47 -31 -18 -17 -20 -24 -11 -51 15 -43
70 -125 108 -162 l32 -30 25 30 c13 17 36 53 49 80 40 83 29 135 -31 161 -39
16 -89 17 -125 3z"/>
</g>
</svg>
